<mxfile host="app.diagrams.net" modified="2021-08-13T06:39:00.085Z" agent="5.0 (Windows NT 10.0; Win64; x64) AppleWebKit/537.36 (KHTML, like Gecko) Chrome/92.0.4515.131 Safari/537.36" etag="iskZZLoK8A_QH3NKhDuf" version="14.9.6" type="github">
  <diagram id="R2lEEEUBdFMjLlhIrx00" name="Page-1">
    <mxGraphModel dx="1483" dy="1881" grid="1" gridSize="10" guides="1" tooltips="1" connect="1" arrows="1" fold="1" page="1" pageScale="1" pageWidth="850" pageHeight="1100" math="0" shadow="0" extFonts="Permanent Marker^https://fonts.googleapis.com/css?family=Permanent+Marker">
      <root>
        <mxCell id="0" />
        <mxCell id="1" parent="0" />
        <mxCell id="iCBVlE0uI8_HjlMuSp3D-1" value="User&amp;nbsp;" style="rounded=0;whiteSpace=wrap;html=1;" vertex="1" parent="1">
          <mxGeometry x="180" y="110" width="150" height="50" as="geometry" />
        </mxCell>
        <mxCell id="iCBVlE0uI8_HjlMuSp3D-2" value="Schedule_Appointment" style="rounded=0;whiteSpace=wrap;html=1;" vertex="1" parent="1">
          <mxGeometry x="850" y="117.5" width="130" height="50" as="geometry" />
        </mxCell>
        <mxCell id="iCBVlE0uI8_HjlMuSp3D-3" value="User_Name" style="ellipse;whiteSpace=wrap;html=1;" vertex="1" parent="1">
          <mxGeometry x="50" y="180" width="90" height="40" as="geometry" />
        </mxCell>
        <mxCell id="iCBVlE0uI8_HjlMuSp3D-4" value="User_Email" style="ellipse;whiteSpace=wrap;html=1;" vertex="1" parent="1">
          <mxGeometry x="125" y="235" width="100" height="50" as="geometry" />
        </mxCell>
        <mxCell id="iCBVlE0uI8_HjlMuSp3D-5" value="User_DOB" style="ellipse;whiteSpace=wrap;html=1;" vertex="1" parent="1">
          <mxGeometry x="230" y="235" width="90" height="40" as="geometry" />
        </mxCell>
        <mxCell id="iCBVlE0uI8_HjlMuSp3D-6" value="User_Age" style="ellipse;whiteSpace=wrap;html=1;dashed=1;" vertex="1" parent="1">
          <mxGeometry x="250" y="330" width="110" height="40" as="geometry" />
        </mxCell>
        <mxCell id="iCBVlE0uI8_HjlMuSp3D-7" value="User_Phone" style="ellipse;whiteSpace=wrap;html=1;" vertex="1" parent="1">
          <mxGeometry x="30" y="117.5" width="110" height="40" as="geometry" />
        </mxCell>
        <mxCell id="iCBVlE0uI8_HjlMuSp3D-8" value="AdreessLine1" style="ellipse;whiteSpace=wrap;html=1;" vertex="1" parent="1">
          <mxGeometry x="30" y="-120" width="110" height="45" as="geometry" />
        </mxCell>
        <mxCell id="iCBVlE0uI8_HjlMuSp3D-9" value="AddressLine2" style="ellipse;whiteSpace=wrap;html=1;" vertex="1" parent="1">
          <mxGeometry x="120" y="-170" width="110" height="40" as="geometry" />
        </mxCell>
        <mxCell id="iCBVlE0uI8_HjlMuSp3D-10" value="City" style="ellipse;whiteSpace=wrap;html=1;" vertex="1" parent="1">
          <mxGeometry x="240" y="-190" width="90" height="40" as="geometry" />
        </mxCell>
        <mxCell id="iCBVlE0uI8_HjlMuSp3D-11" value="Country" style="ellipse;whiteSpace=wrap;html=1;" vertex="1" parent="1">
          <mxGeometry x="350" y="-160" width="100" height="40" as="geometry" />
        </mxCell>
        <mxCell id="iCBVlE0uI8_HjlMuSp3D-12" value="State" style="ellipse;whiteSpace=wrap;html=1;" vertex="1" parent="1">
          <mxGeometry x="340" y="200" width="95" height="50" as="geometry" />
        </mxCell>
        <mxCell id="iCBVlE0uI8_HjlMuSp3D-13" value="Pincode" style="ellipse;whiteSpace=wrap;html=1;" vertex="1" parent="1">
          <mxGeometry x="400" y="-100" width="120" height="40" as="geometry" />
        </mxCell>
        <mxCell id="iCBVlE0uI8_HjlMuSp3D-15" value="" style="endArrow=none;html=1;entryX=0;entryY=0.5;entryDx=0;entryDy=0;exitX=1;exitY=0.5;exitDx=0;exitDy=0;" edge="1" parent="1" source="iCBVlE0uI8_HjlMuSp3D-7" target="iCBVlE0uI8_HjlMuSp3D-1">
          <mxGeometry width="50" height="50" relative="1" as="geometry">
            <mxPoint x="140" y="150" as="sourcePoint" />
            <mxPoint x="190" y="100" as="targetPoint" />
          </mxGeometry>
        </mxCell>
        <mxCell id="iCBVlE0uI8_HjlMuSp3D-17" value="" style="endArrow=none;html=1;exitX=0.5;exitY=0;exitDx=0;exitDy=0;" edge="1" parent="1" source="iCBVlE0uI8_HjlMuSp3D-5">
          <mxGeometry width="50" height="50" relative="1" as="geometry">
            <mxPoint x="210" y="210" as="sourcePoint" />
            <mxPoint x="260" y="160" as="targetPoint" />
            <Array as="points" />
          </mxGeometry>
        </mxCell>
        <mxCell id="iCBVlE0uI8_HjlMuSp3D-18" value="" style="endArrow=none;html=1;entryX=0.25;entryY=1;entryDx=0;entryDy=0;exitX=0.65;exitY=0.1;exitDx=0;exitDy=0;exitPerimeter=0;" edge="1" parent="1" source="iCBVlE0uI8_HjlMuSp3D-4" target="iCBVlE0uI8_HjlMuSp3D-1">
          <mxGeometry width="50" height="50" relative="1" as="geometry">
            <mxPoint x="190" y="230" as="sourcePoint" />
            <mxPoint x="220" y="180" as="targetPoint" />
            <Array as="points" />
          </mxGeometry>
        </mxCell>
        <mxCell id="iCBVlE0uI8_HjlMuSp3D-19" value="" style="endArrow=none;html=1;entryX=0;entryY=1;entryDx=0;entryDy=0;" edge="1" parent="1" target="iCBVlE0uI8_HjlMuSp3D-1">
          <mxGeometry width="50" height="50" relative="1" as="geometry">
            <mxPoint x="140" y="190" as="sourcePoint" />
            <mxPoint x="180" y="130" as="targetPoint" />
          </mxGeometry>
        </mxCell>
        <mxCell id="iCBVlE0uI8_HjlMuSp3D-28" value="" style="endArrow=none;html=1;exitX=0.887;exitY=1.009;exitDx=0;exitDy=0;exitPerimeter=0;" edge="1" parent="1" source="iCBVlE0uI8_HjlMuSp3D-1">
          <mxGeometry width="50" height="50" relative="1" as="geometry">
            <mxPoint x="330" y="300" as="sourcePoint" />
            <mxPoint x="350" y="210" as="targetPoint" />
          </mxGeometry>
        </mxCell>
        <mxCell id="iCBVlE0uI8_HjlMuSp3D-29" value="" style="endArrow=none;html=1;" edge="1" parent="1">
          <mxGeometry width="50" height="50" relative="1" as="geometry">
            <mxPoint x="290" y="330" as="sourcePoint" />
            <mxPoint x="280" y="275" as="targetPoint" />
          </mxGeometry>
        </mxCell>
        <mxCell id="iCBVlE0uI8_HjlMuSp3D-35" value="manages" style="rhombus;whiteSpace=wrap;html=1;" vertex="1" parent="1">
          <mxGeometry x="580" y="-40" width="110" height="95" as="geometry" />
        </mxCell>
        <mxCell id="iCBVlE0uI8_HjlMuSp3D-36" value="" style="endArrow=none;html=1;entryX=0;entryY=0.5;entryDx=0;entryDy=0;exitX=1;exitY=0.5;exitDx=0;exitDy=0;" edge="1" parent="1" source="iCBVlE0uI8_HjlMuSp3D-35" target="iCBVlE0uI8_HjlMuSp3D-2">
          <mxGeometry width="50" height="50" relative="1" as="geometry">
            <mxPoint x="690" y="167.5" as="sourcePoint" />
            <mxPoint x="740" y="117.5" as="targetPoint" />
          </mxGeometry>
        </mxCell>
        <mxCell id="iCBVlE0uI8_HjlMuSp3D-37" value="" style="endArrow=none;html=1;exitX=1;exitY=0.5;exitDx=0;exitDy=0;entryX=0;entryY=0.5;entryDx=0;entryDy=0;" edge="1" parent="1" source="iCBVlE0uI8_HjlMuSp3D-1" target="iCBVlE0uI8_HjlMuSp3D-35">
          <mxGeometry width="50" height="50" relative="1" as="geometry">
            <mxPoint x="460" y="167.5" as="sourcePoint" />
            <mxPoint x="510" y="117.5" as="targetPoint" />
          </mxGeometry>
        </mxCell>
        <mxCell id="iCBVlE0uI8_HjlMuSp3D-42" value="&lt;u&gt;User-ID&lt;/u&gt;" style="ellipse;whiteSpace=wrap;html=1;" vertex="1" parent="1">
          <mxGeometry x="70" y="40" width="100" height="40" as="geometry" />
        </mxCell>
        <mxCell id="iCBVlE0uI8_HjlMuSp3D-56" value="" style="ellipse;whiteSpace=wrap;html=1;" vertex="1" parent="1">
          <mxGeometry x="195" y="-40" width="135" height="70" as="geometry" />
        </mxCell>
        <mxCell id="iCBVlE0uI8_HjlMuSp3D-57" value="Address" style="ellipse;whiteSpace=wrap;html=1;" vertex="1" parent="1">
          <mxGeometry x="217.5" y="-30" width="90" height="50" as="geometry" />
        </mxCell>
        <mxCell id="iCBVlE0uI8_HjlMuSp3D-58" value="" style="endArrow=none;html=1;entryX=0.06;entryY=0.747;entryDx=0;entryDy=0;entryPerimeter=0;" edge="1" parent="1" target="iCBVlE0uI8_HjlMuSp3D-13">
          <mxGeometry width="50" height="50" relative="1" as="geometry">
            <mxPoint x="330" y="-20" as="sourcePoint" />
            <mxPoint x="380" y="-70" as="targetPoint" />
          </mxGeometry>
        </mxCell>
        <mxCell id="iCBVlE0uI8_HjlMuSp3D-61" value="" style="endArrow=none;html=1;exitX=0.704;exitY=0;exitDx=0;exitDy=0;exitPerimeter=0;" edge="1" parent="1" source="iCBVlE0uI8_HjlMuSp3D-56">
          <mxGeometry width="50" height="50" relative="1" as="geometry">
            <mxPoint x="320" y="-75" as="sourcePoint" />
            <mxPoint x="370" y="-125" as="targetPoint" />
          </mxGeometry>
        </mxCell>
        <mxCell id="iCBVlE0uI8_HjlMuSp3D-63" value="" style="endArrow=none;html=1;entryX=0.5;entryY=1;entryDx=0;entryDy=0;exitX=0.585;exitY=0.009;exitDx=0;exitDy=0;exitPerimeter=0;" edge="1" parent="1" source="iCBVlE0uI8_HjlMuSp3D-56" target="iCBVlE0uI8_HjlMuSp3D-10">
          <mxGeometry width="50" height="50" relative="1" as="geometry">
            <mxPoint x="250" y="-100" as="sourcePoint" />
            <mxPoint x="300" y="-150" as="targetPoint" />
          </mxGeometry>
        </mxCell>
        <mxCell id="iCBVlE0uI8_HjlMuSp3D-64" value="" style="endArrow=none;html=1;entryX=0.247;entryY=0.02;entryDx=0;entryDy=0;entryPerimeter=0;" edge="1" parent="1" source="iCBVlE0uI8_HjlMuSp3D-9" target="iCBVlE0uI8_HjlMuSp3D-56">
          <mxGeometry width="50" height="50" relative="1" as="geometry">
            <mxPoint x="175" y="-80" as="sourcePoint" />
            <mxPoint x="175" y="-59.289321881345245" as="targetPoint" />
          </mxGeometry>
        </mxCell>
        <mxCell id="iCBVlE0uI8_HjlMuSp3D-65" value="" style="endArrow=none;html=1;exitX=0.735;exitY=0.991;exitDx=0;exitDy=0;exitPerimeter=0;" edge="1" parent="1" source="iCBVlE0uI8_HjlMuSp3D-8" target="iCBVlE0uI8_HjlMuSp3D-56">
          <mxGeometry width="50" height="50" relative="1" as="geometry">
            <mxPoint x="130" y="-20" as="sourcePoint" />
            <mxPoint x="180" y="-70" as="targetPoint" />
          </mxGeometry>
        </mxCell>
        <mxCell id="iCBVlE0uI8_HjlMuSp3D-66" value="" style="endArrow=none;html=1;entryX=0.449;entryY=0.991;entryDx=0;entryDy=0;exitX=0.5;exitY=0;exitDx=0;exitDy=0;entryPerimeter=0;" edge="1" parent="1" source="iCBVlE0uI8_HjlMuSp3D-1" target="iCBVlE0uI8_HjlMuSp3D-56">
          <mxGeometry width="50" height="50" relative="1" as="geometry">
            <mxPoint x="240" y="100" as="sourcePoint" />
            <mxPoint x="290" y="50" as="targetPoint" />
          </mxGeometry>
        </mxCell>
        <mxCell id="iCBVlE0uI8_HjlMuSp3D-69" value="Different_Packages&amp;nbsp;" style="ellipse;whiteSpace=wrap;html=1;" vertex="1" parent="1">
          <mxGeometry x="1020" y="220" width="140" height="60" as="geometry" />
        </mxCell>
        <mxCell id="iCBVlE0uI8_HjlMuSp3D-70" value="Total_weeks" style="ellipse;whiteSpace=wrap;html=1;" vertex="1" parent="1">
          <mxGeometry x="820" y="270" width="140" height="60" as="geometry" />
        </mxCell>
        <mxCell id="iCBVlE0uI8_HjlMuSp3D-71" value="Total_amount" style="ellipse;whiteSpace=wrap;html=1;dashed=1;" vertex="1" parent="1">
          <mxGeometry x="980" y="360" width="130" height="60" as="geometry" />
        </mxCell>
        <mxCell id="iCBVlE0uI8_HjlMuSp3D-76" value="&lt;u&gt;Appointment-Id&lt;/u&gt;" style="ellipse;whiteSpace=wrap;html=1;" vertex="1" parent="1">
          <mxGeometry x="1120" y="107.5" width="140" height="60" as="geometry" />
        </mxCell>
        <mxCell id="iCBVlE0uI8_HjlMuSp3D-80" value="Trainer-Id" style="ellipse;whiteSpace=wrap;html=1;gradientColor=none;" vertex="1" parent="1">
          <mxGeometry x="460" y="500" width="120" height="80" as="geometry" />
        </mxCell>
        <mxCell id="iCBVlE0uI8_HjlMuSp3D-81" value="Gender" style="ellipse;whiteSpace=wrap;html=1;gradientColor=none;" vertex="1" parent="1">
          <mxGeometry x="600" y="570" width="120" height="80" as="geometry" />
        </mxCell>
        <mxCell id="iCBVlE0uI8_HjlMuSp3D-83" style="edgeStyle=orthogonalEdgeStyle;rounded=0;orthogonalLoop=1;jettySize=auto;html=1;exitX=0.5;exitY=1;exitDx=0;exitDy=0;" edge="1" parent="1">
          <mxGeometry relative="1" as="geometry">
            <mxPoint x="650" y="460" as="sourcePoint" />
            <mxPoint x="650" y="460" as="targetPoint" />
          </mxGeometry>
        </mxCell>
        <mxCell id="iCBVlE0uI8_HjlMuSp3D-85" value="" style="endArrow=none;html=1;exitX=1;exitY=0.5;exitDx=0;exitDy=0;entryX=0;entryY=0.5;entryDx=0;entryDy=0;" edge="1" parent="1" source="iCBVlE0uI8_HjlMuSp3D-2" target="iCBVlE0uI8_HjlMuSp3D-76">
          <mxGeometry width="50" height="50" relative="1" as="geometry">
            <mxPoint x="1010" y="180" as="sourcePoint" />
            <mxPoint x="1060" y="130" as="targetPoint" />
          </mxGeometry>
        </mxCell>
        <mxCell id="iCBVlE0uI8_HjlMuSp3D-86" value="" style="endArrow=none;html=1;exitX=0.44;exitY=-0.053;exitDx=0;exitDy=0;exitPerimeter=0;" edge="1" parent="1" source="iCBVlE0uI8_HjlMuSp3D-70">
          <mxGeometry width="50" height="50" relative="1" as="geometry">
            <mxPoint x="860" y="230" as="sourcePoint" />
            <mxPoint x="910" y="170" as="targetPoint" />
          </mxGeometry>
        </mxCell>
        <mxCell id="iCBVlE0uI8_HjlMuSp3D-87" value="" style="endArrow=none;html=1;entryX=0.221;entryY=0.059;entryDx=0;entryDy=0;entryPerimeter=0;exitX=0.851;exitY=1.066;exitDx=0;exitDy=0;exitPerimeter=0;" edge="1" parent="1" source="iCBVlE0uI8_HjlMuSp3D-2" target="iCBVlE0uI8_HjlMuSp3D-69">
          <mxGeometry width="50" height="50" relative="1" as="geometry">
            <mxPoint x="970" y="180" as="sourcePoint" />
            <mxPoint x="1010" y="190" as="targetPoint" />
          </mxGeometry>
        </mxCell>
        <mxCell id="iCBVlE0uI8_HjlMuSp3D-88" value="" style="endArrow=none;html=1;exitX=0.662;exitY=1.014;exitDx=0;exitDy=0;exitPerimeter=0;entryX=0.01;entryY=0.298;entryDx=0;entryDy=0;entryPerimeter=0;" edge="1" parent="1" source="iCBVlE0uI8_HjlMuSp3D-70" target="iCBVlE0uI8_HjlMuSp3D-71">
          <mxGeometry width="50" height="50" relative="1" as="geometry">
            <mxPoint x="910" y="380" as="sourcePoint" />
            <mxPoint x="960" y="330" as="targetPoint" />
          </mxGeometry>
        </mxCell>
        <mxCell id="iCBVlE0uI8_HjlMuSp3D-89" value="" style="endArrow=none;html=1;exitX=0.604;exitY=-0.016;exitDx=0;exitDy=0;exitPerimeter=0;entryX=0.443;entryY=0.984;entryDx=0;entryDy=0;entryPerimeter=0;" edge="1" parent="1" source="iCBVlE0uI8_HjlMuSp3D-71" target="iCBVlE0uI8_HjlMuSp3D-69">
          <mxGeometry width="50" height="50" relative="1" as="geometry">
            <mxPoint x="1060" y="340" as="sourcePoint" />
            <mxPoint x="1110" y="290" as="targetPoint" />
          </mxGeometry>
        </mxCell>
        <mxCell id="iCBVlE0uI8_HjlMuSp3D-93" value="Trainer_Name" style="ellipse;whiteSpace=wrap;html=1;gradientColor=none;" vertex="1" parent="1">
          <mxGeometry x="710" y="490" width="120" height="80" as="geometry" />
        </mxCell>
        <mxCell id="iCBVlE0uI8_HjlMuSp3D-94" value="" style="endArrow=none;html=1;" edge="1" parent="1">
          <mxGeometry width="50" height="50" relative="1" as="geometry">
            <mxPoint x="550" y="500" as="sourcePoint" />
            <mxPoint x="600" y="450" as="targetPoint" />
          </mxGeometry>
        </mxCell>
        <mxCell id="iCBVlE0uI8_HjlMuSp3D-95" value="" style="endArrow=none;html=1;exitX=0.5;exitY=0;exitDx=0;exitDy=0;entryX=0.5;entryY=1;entryDx=0;entryDy=0;" edge="1" parent="1" source="iCBVlE0uI8_HjlMuSp3D-81">
          <mxGeometry width="50" height="50" relative="1" as="geometry">
            <mxPoint x="630" y="550" as="sourcePoint" />
            <mxPoint x="650" y="460" as="targetPoint" />
          </mxGeometry>
        </mxCell>
        <mxCell id="iCBVlE0uI8_HjlMuSp3D-96" value="" style="endArrow=none;html=1;exitX=0.315;exitY=-0.002;exitDx=0;exitDy=0;exitPerimeter=0;" edge="1" parent="1" source="iCBVlE0uI8_HjlMuSp3D-93">
          <mxGeometry width="50" height="50" relative="1" as="geometry">
            <mxPoint x="730" y="490" as="sourcePoint" />
            <mxPoint x="692.198316243017" y="452.9253563372904" as="targetPoint" />
          </mxGeometry>
        </mxCell>
        <mxCell id="iCBVlE0uI8_HjlMuSp3D-97" value="has" style="rhombus;whiteSpace=wrap;html=1;gradientColor=none;" vertex="1" parent="1">
          <mxGeometry x="560" y="200" width="80" height="80" as="geometry" />
        </mxCell>
        <mxCell id="iCBVlE0uI8_HjlMuSp3D-98" value="" style="endArrow=none;html=1;entryX=0;entryY=0.5;entryDx=0;entryDy=0;" edge="1" parent="1" target="iCBVlE0uI8_HjlMuSp3D-97">
          <mxGeometry width="50" height="50" relative="1" as="geometry">
            <mxPoint x="330" y="140" as="sourcePoint" />
            <mxPoint x="490" y="140" as="targetPoint" />
          </mxGeometry>
        </mxCell>
        <mxCell id="iCBVlE0uI8_HjlMuSp3D-99" value="" style="endArrow=none;html=1;exitX=0.5;exitY=0;exitDx=0;exitDy=0;entryX=0.5;entryY=1;entryDx=0;entryDy=0;" edge="1" parent="1" target="iCBVlE0uI8_HjlMuSp3D-97">
          <mxGeometry width="50" height="50" relative="1" as="geometry">
            <mxPoint x="650" y="390" as="sourcePoint" />
            <mxPoint x="650" y="300" as="targetPoint" />
          </mxGeometry>
        </mxCell>
        <mxCell id="iCBVlE0uI8_HjlMuSp3D-101" value="" style="endArrow=none;html=1;exitX=1;exitY=0;exitDx=0;exitDy=0;entryX=0.5;entryY=1;entryDx=0;entryDy=0;" edge="1" parent="1" target="iCBVlE0uI8_HjlMuSp3D-97">
          <mxGeometry width="50" height="50" relative="1" as="geometry">
            <mxPoint x="282.42640687118796" y="471.7157287525415" as="sourcePoint" />
            <mxPoint x="350" y="420" as="targetPoint" />
          </mxGeometry>
        </mxCell>
        <mxCell id="iCBVlE0uI8_HjlMuSp3D-102" value="Trainer" style="rounded=0;whiteSpace=wrap;html=1;gradientColor=none;" vertex="1" parent="1">
          <mxGeometry x="590" y="390" width="120" height="60" as="geometry" />
        </mxCell>
        <mxCell id="iCBVlE0uI8_HjlMuSp3D-103" value="Physiotherapist" style="rounded=0;whiteSpace=wrap;html=1;gradientColor=none;" vertex="1" parent="1">
          <mxGeometry x="187.5" y="470" width="120" height="60" as="geometry" />
        </mxCell>
        <mxCell id="iCBVlE0uI8_HjlMuSp3D-105" value="&lt;u&gt;Physio-Id&lt;/u&gt;" style="ellipse;whiteSpace=wrap;html=1;gradientColor=none;" vertex="1" parent="1">
          <mxGeometry x="120" y="580" width="120" height="80" as="geometry" />
        </mxCell>
        <mxCell id="iCBVlE0uI8_HjlMuSp3D-106" value="" style="endArrow=none;html=1;" edge="1" parent="1">
          <mxGeometry width="50" height="50" relative="1" as="geometry">
            <mxPoint x="180" y="580" as="sourcePoint" />
            <mxPoint x="230" y="530" as="targetPoint" />
          </mxGeometry>
        </mxCell>
        <mxCell id="iCBVlE0uI8_HjlMuSp3D-107" value="Physio_Name" style="ellipse;whiteSpace=wrap;html=1;gradientColor=none;" vertex="1" parent="1">
          <mxGeometry x="245" y="640" width="120" height="80" as="geometry" />
        </mxCell>
        <mxCell id="iCBVlE0uI8_HjlMuSp3D-108" value="" style="endArrow=none;html=1;entryX=0.604;entryY=1;entryDx=0;entryDy=0;entryPerimeter=0;exitX=0.375;exitY=0;exitDx=0;exitDy=0;exitPerimeter=0;" edge="1" parent="1" source="iCBVlE0uI8_HjlMuSp3D-107" target="iCBVlE0uI8_HjlMuSp3D-103">
          <mxGeometry width="50" height="50" relative="1" as="geometry">
            <mxPoint x="280" y="630" as="sourcePoint" />
            <mxPoint x="330" y="580" as="targetPoint" />
          </mxGeometry>
        </mxCell>
      </root>
    </mxGraphModel>
  </diagram>
</mxfile>
